<?xml version="1.0" encoding="UTF-8"?>
<svg fill="currentColor" version="1.1" viewBox="0 0 100 100" xmlns="http://www.w3.org/2000/svg">
 <g fill-rule="evenodd">
  <path d="m7.1328 8.7148c0.55469-0.39062 1.2617-0.48828 1.9023-0.26172l28.516 10.184 26.422-8.1289c0.44531-0.13672 0.92188-0.12109 1.3594 0.046876l27.082 10.418c0.80469 0.30859 1.3359 1.082 1.3359 1.9453v66.664c0 0.6875-0.33984 1.3281-0.90234 1.7188-0.56641 0.38672-1.2891 0.47266-1.9297 0.22656l-26.41-10.156-26.395 8.1211c-0.42969 0.13281-0.89062 0.12109-1.3125-0.03125l-29.168-10.414c-0.82812-0.29688-1.3828-1.082-1.3828-1.9648v-66.664c0-0.67969 0.32812-1.3125 0.88281-1.7031zm3.2852 4.6562v62.242l27.133 9.6914 26.422-8.1289c0.44531-0.13672 0.92188-0.12109 1.3594 0.046875l24.25 9.3281v-62.203l-25.074-9.6445-26.395 8.1211c-0.42969 0.13281-0.89062 0.12109-1.3125-0.027344z"/>
  <path d="m50 33.332c-9.2031 0-16.668 7.4648-16.668 16.668s7.4648 16.668 16.668 16.668 16.668-7.4648 16.668-16.668-7.4648-16.668-16.668-16.668zm-20.832 16.668c0-11.508 9.3242-20.832 20.832-20.832 11.504 0 20.832 9.3242 20.832 20.832 0 11.504-9.3281 20.832-20.832 20.832-11.508 0-20.832-9.3281-20.832-20.832z"/>
  <path d="m47.531 38.945c-1.0234 2.7266-1.6992 6.6367-1.6992 11.055s0.67578 8.3281 1.6992 11.055c0.51562 1.3711 1.0781 2.3359 1.5938 2.9219 0.52344 0.58594 0.82031 0.60547 0.875 0.60547s0.35156-0.019531 0.875-0.60547c0.51562-0.58594 1.0781-1.5508 1.5938-2.9219 1.0234-2.7266 1.6992-6.6367 1.6992-11.055s-0.67578-8.3281-1.6992-11.055c-0.51562-1.3711-1.0781-2.3359-1.5938-2.9219-0.52344-0.58594-0.82031-0.60547-0.875-0.60547s-0.35156 0.019531-0.875 0.60547c-0.51562 0.58594-1.0781 1.5508-1.5938 2.9219zm-1.5234-5.6836c0.97656-1.1016 2.3203-2.0117 3.9922-2.0117s3.0156 0.91016 3.9922 2.0117c0.97656 1.1016 1.7617 2.5781 2.3789 4.2227 1.2383 3.3047 1.9609 7.7305 1.9609 12.516s-0.72266 9.2109-1.9609 12.516c-0.61719 1.6445-1.4023 3.1211-2.3789 4.2227-0.97656 1.1016-2.3203 2.0117-3.9922 2.0117s-3.0156-0.91016-3.9922-2.0117c-0.97656-1.1016-1.7617-2.5781-2.3789-4.2227-1.2383-3.3047-1.9609-7.7305-1.9609-12.516s0.72266-9.2109 1.9609-12.516c0.61719-1.6445 1.4023-3.1211 2.3789-4.2227z"/>
  <path d="m29.168 50c0-1.1523 0.92969-2.082 2.082-2.082h37.5c1.1523 0 2.082 0.92969 2.082 2.082s-0.92969 2.082-2.082 2.082h-37.5c-1.1523 0-2.082-0.92969-2.082-2.082z"/>
 </g>
</svg>